<?xml version="1.0" encoding="UTF-8"?>
<svg xmlns="http://www.w3.org/2000/svg" xmlns:xlink="http://www.w3.org/1999/xlink" width="36px" height="30px" viewBox="0 0 36 30" version="1.1">
<g id="surface1">
<path style=" stroke:none;fill-rule:nonzero;fill:rgb(0%,29.019608%,67.843137%);fill-opacity:1;" d="M 13.664062 21.410156 C 13.886719 21.410156 14.113281 21.40625 14.335938 21.394531 C 14.558594 21.386719 14.78125 21.371094 15.003906 21.351562 C 15.226562 21.332031 15.449219 21.304688 15.671875 21.273438 C 15.894531 21.246094 16.113281 21.210938 16.332031 21.171875 C 16.550781 21.128906 16.769531 21.085938 16.984375 21.035156 C 17.199219 20.984375 17.414062 20.929688 17.625 20.871094 C 17.839844 20.808594 18.046875 20.746094 18.257812 20.675781 C 18.464844 20.605469 18.671875 20.53125 18.875 20.453125 C 19.078125 20.375 19.277344 20.292969 19.476562 20.203125 C 19.671875 20.117188 19.867188 20.023438 20.058594 19.925781 C 20.25 19.832031 20.441406 19.730469 20.625 19.625 C 20.808594 19.519531 20.992188 19.410156 21.167969 19.296875 C 21.347656 19.183594 21.519531 19.066406 21.691406 18.941406 C 21.863281 18.820312 22.027344 18.695312 22.191406 18.566406 C 22.351562 18.4375 22.507812 18.304688 22.664062 18.167969 C 22.816406 18.03125 22.964844 17.894531 23.109375 17.75 C 23.253906 17.609375 23.390625 17.460938 23.527344 17.3125 C 23.660156 17.164062 23.789062 17.011719 23.914062 16.855469 C 24.039062 16.699219 24.160156 16.542969 24.273438 16.382812 C 24.386719 16.21875 24.496094 16.058594 24.597656 15.890625 C 24.703125 15.726562 24.800781 15.558594 24.894531 15.386719 C 24.984375 15.21875 25.074219 15.046875 25.152344 14.871094 C 25.234375 14.695312 25.308594 14.519531 25.378906 14.34375 C 25.449219 14.167969 25.511719 13.988281 25.570312 13.808594 C 25.628906 13.625 25.679688 13.445312 25.726562 13.261719 C 25.773438 13.078125 25.8125 12.894531 25.847656 12.710938 C 25.878906 12.527344 25.910156 12.339844 25.929688 12.15625 C 25.953125 11.96875 25.96875 11.78125 25.976562 11.597656 C 25.988281 11.410156 25.992188 11.222656 25.988281 11.035156 C 25.984375 10.851562 25.976562 10.664062 25.960938 10.476562 C 25.945312 10.289062 25.925781 10.105469 25.898438 9.917969 C 25.871094 9.734375 25.835938 9.550781 25.796875 9.367188 C 25.757812 9.179688 25.714844 9 25.664062 8.816406 C 25.613281 8.632812 25.554688 8.453125 25.492188 8.273438 C 25.429688 8.097656 25.359375 7.917969 25.285156 7.742188 C 25.210938 7.566406 25.128906 7.390625 25.042969 7.21875 C 24.957031 7.046875 24.863281 6.875 24.769531 6.707031 C 24.671875 6.539062 24.566406 6.375 24.460938 6.210938 C 24.351562 6.046875 24.238281 5.886719 24.117188 5.726562 C 24 5.570312 23.875 5.414062 23.746094 5.261719 C 23.617188 5.109375 23.484375 4.960938 23.34375 4.8125 C 23.207031 4.664062 23.0625 4.523438 22.914062 4.382812 C 22.765625 4.242188 22.613281 4.105469 22.457031 3.972656 C 22.300781 3.839844 22.136719 3.710938 21.972656 3.585938 C 21.808594 3.457031 21.636719 3.335938 21.464844 3.21875 C 21.289062 3.101562 21.113281 2.984375 20.929688 2.875 C 20.75 2.765625 20.566406 2.660156 20.378906 2.558594 C 20.1875 2.457031 19.996094 2.359375 19.804688 2.265625 C 19.609375 2.175781 19.410156 2.085938 19.210938 2.003906 C 19.011719 1.917969 18.808594 1.839844 18.601562 1.765625 C 18.398438 1.691406 18.191406 1.621094 17.980469 1.554688 C 17.769531 1.488281 17.558594 1.429688 17.34375 1.375 C 17.128906 1.320312 16.914062 1.269531 16.695312 1.222656 C 16.480469 1.175781 16.261719 1.136719 16.039062 1.101562 C 15.820312 1.0625 15.601562 1.035156 15.378906 1.007812 C 15.15625 0.984375 14.933594 0.960938 14.710938 0.945312 C 14.488281 0.929688 14.261719 0.921875 14.039062 0.914062 C 13.816406 0.910156 13.589844 0.910156 13.367188 0.914062 C 13.144531 0.917969 12.917969 0.929688 12.695312 0.945312 C 12.472656 0.960938 12.25 0.980469 12.027344 1.003906 C 11.804688 1.03125 11.585938 1.0625 11.363281 1.097656 C 11.144531 1.132812 10.925781 1.171875 10.707031 1.21875 C 10.492188 1.261719 10.273438 1.3125 10.058594 1.367188 C 9.847656 1.421875 9.632812 1.484375 9.425781 1.546875 C 9.214844 1.613281 9.003906 1.683594 8.800781 1.757812 C 8.59375 1.828125 8.390625 1.910156 8.191406 1.992188 C 7.992188 2.074219 7.792969 2.164062 7.597656 2.257812 C 7.402344 2.347656 7.210938 2.445312 7.023438 2.546875 C 6.835938 2.648438 6.652344 2.753906 6.46875 2.863281 C 6.289062 2.972656 6.109375 3.085938 5.9375 3.203125 C 5.761719 3.320312 5.59375 3.445312 5.425781 3.570312 C 5.261719 3.695312 5.097656 3.824219 4.941406 3.957031 C 4.78125 4.089844 4.628906 4.226562 4.480469 4.367188 C 4.332031 4.503906 4.1875 4.648438 4.050781 4.796875 C 3.910156 4.941406 3.777344 5.089844 3.648438 5.242188 C 3.519531 5.394531 3.394531 5.550781 3.273438 5.710938 C 3.15625 5.867188 3.042969 6.027344 2.933594 6.191406 C 2.824219 6.355469 2.71875 6.519531 2.621094 6.6875 C 2.523438 6.855469 2.433594 7.027344 2.347656 7.199219 C 2.257812 7.371094 2.179688 7.546875 2.105469 7.722656 C 2.027344 7.898438 1.960938 8.074219 1.894531 8.253906 C 1.832031 8.433594 1.773438 8.613281 1.722656 8.796875 C 1.671875 8.976562 1.625 9.160156 1.585938 9.34375 C 1.546875 9.527344 1.511719 9.710938 1.484375 9.898438 C 1.457031 10.082031 1.433594 10.269531 1.417969 10.453125 C 1.40625 10.640625 1.394531 10.828125 1.390625 11.015625 C 1.390625 11.203125 1.390625 11.386719 1.402344 11.574219 C 1.410156 11.761719 1.425781 11.949219 1.445312 12.132812 C 1.46875 12.320312 1.496094 12.503906 1.527344 12.6875 C 1.5625 12.875 1.601562 13.058594 1.648438 13.242188 C 1.691406 13.421875 1.742188 13.605469 1.800781 13.785156 C 1.859375 13.964844 1.921875 14.144531 1.992188 14.324219 C 2.058594 14.5 2.136719 14.675781 2.214844 14.851562 C 2.296875 15.023438 2.382812 15.195312 2.476562 15.367188 C 2.566406 15.539062 2.664062 15.707031 2.765625 15.871094 C 2.871094 16.039062 2.980469 16.203125 3.09375 16.363281 L 1.433594 20.511719 C 1.421875 20.539062 1.414062 20.5625 1.40625 20.589844 C 1.402344 20.617188 1.398438 20.640625 1.394531 20.667969 C 1.390625 20.695312 1.390625 20.722656 1.390625 20.75 C 1.394531 20.777344 1.394531 20.804688 1.402344 20.828125 C 1.40625 20.855469 1.410156 20.882812 1.421875 20.910156 C 1.429688 20.933594 1.441406 20.960938 1.453125 20.984375 C 1.464844 21.011719 1.476562 21.035156 1.492188 21.058594 C 1.507812 21.082031 1.527344 21.105469 1.546875 21.125 C 1.5625 21.148438 1.585938 21.167969 1.605469 21.1875 C 1.628906 21.207031 1.652344 21.226562 1.675781 21.246094 C 1.699219 21.261719 1.726562 21.277344 1.753906 21.292969 C 1.78125 21.308594 1.808594 21.320312 1.835938 21.335938 C 1.863281 21.347656 1.894531 21.355469 1.925781 21.367188 C 1.957031 21.375 1.984375 21.382812 2.015625 21.390625 C 2.046875 21.398438 2.082031 21.402344 2.113281 21.40625 C 2.144531 21.40625 2.175781 21.410156 2.207031 21.410156 C 2.296875 21.410156 2.382812 21.398438 2.46875 21.375 L 7.449219 19.992188 C 7.914062 20.222656 8.402344 20.425781 8.902344 20.601562 C 9.402344 20.78125 9.917969 20.929688 10.441406 21.046875 C 10.964844 21.167969 11.5 21.257812 12.039062 21.316406 C 12.578125 21.378906 13.121094 21.410156 13.664062 21.410156 Z M 3.503906 19.648438 L 4.765625 16.492188 C 4.785156 16.445312 4.796875 16.394531 4.804688 16.34375 C 4.808594 16.292969 4.808594 16.246094 4.800781 16.195312 C 4.792969 16.144531 4.78125 16.09375 4.761719 16.046875 C 4.738281 16 4.714844 15.953125 4.679688 15.910156 C 4.566406 15.757812 4.453125 15.605469 4.351562 15.445312 C 4.246094 15.289062 4.148438 15.128906 4.054688 14.964844 C 3.960938 14.800781 3.875 14.636719 3.796875 14.46875 C 3.714844 14.304688 3.640625 14.132812 3.570312 13.960938 C 3.503906 13.792969 3.441406 13.617188 3.386719 13.445312 C 3.332031 13.269531 3.28125 13.09375 3.238281 12.917969 C 3.195312 12.742188 3.160156 12.5625 3.128906 12.386719 C 3.097656 12.207031 3.074219 12.027344 3.058594 11.847656 C 3.042969 11.667969 3.03125 11.488281 3.027344 11.308594 C 3.023438 11.128906 3.027344 10.949219 3.039062 10.765625 C 3.046875 10.585938 3.0625 10.40625 3.085938 10.226562 C 3.109375 10.050781 3.136719 9.871094 3.171875 9.691406 C 3.210938 9.515625 3.25 9.339844 3.300781 9.164062 C 3.347656 8.988281 3.402344 8.8125 3.464844 8.640625 C 3.527344 8.46875 3.59375 8.296875 3.667969 8.125 C 3.742188 7.957031 3.820312 7.789062 3.90625 7.625 C 3.992188 7.457031 4.085938 7.296875 4.183594 7.132812 C 4.28125 6.972656 4.386719 6.816406 4.496094 6.660156 C 4.605469 6.503906 4.71875 6.351562 4.839844 6.203125 C 4.960938 6.054688 5.085938 5.90625 5.21875 5.765625 C 5.347656 5.621094 5.484375 5.480469 5.628906 5.34375 C 5.769531 5.207031 5.914062 5.074219 6.066406 4.945312 C 6.21875 4.816406 6.375 4.691406 6.535156 4.570312 C 6.695312 4.449219 6.859375 4.335938 7.027344 4.222656 C 7.195312 4.109375 7.371094 4 7.546875 3.898438 C 7.722656 3.792969 7.902344 3.695312 8.089844 3.597656 C 8.273438 3.503906 8.460938 3.414062 8.648438 3.328125 C 8.839844 3.242188 9.035156 3.164062 9.230469 3.085938 C 9.425781 3.011719 9.625 2.941406 9.828125 2.875 C 10.03125 2.8125 10.234375 2.75 10.441406 2.695312 C 10.644531 2.640625 10.851562 2.59375 11.0625 2.546875 C 11.273438 2.503906 11.484375 2.464844 11.695312 2.429688 C 11.910156 2.398438 12.121094 2.367188 12.335938 2.34375 C 12.550781 2.324219 12.765625 2.304688 12.984375 2.292969 C 13.199219 2.28125 13.414062 2.273438 13.632812 2.273438 C 13.847656 2.273438 14.0625 2.277344 14.28125 2.289062 C 14.496094 2.296875 14.710938 2.3125 14.925781 2.332031 C 15.140625 2.355469 15.355469 2.378906 15.566406 2.414062 C 15.78125 2.445312 15.992188 2.480469 16.203125 2.523438 C 16.414062 2.566406 16.621094 2.613281 16.828125 2.667969 C 17.035156 2.71875 17.238281 2.777344 17.441406 2.839844 C 17.644531 2.90625 17.84375 2.972656 18.042969 3.046875 C 18.238281 3.121094 18.433594 3.199219 18.625 3.28125 C 18.816406 3.367188 19.007812 3.453125 19.191406 3.546875 C 19.375 3.640625 19.558594 3.738281 19.738281 3.839844 C 19.914062 3.941406 20.089844 4.046875 20.257812 4.160156 C 20.429688 4.269531 20.597656 4.386719 20.757812 4.503906 C 20.917969 4.625 21.078125 4.75 21.230469 4.875 C 21.382812 5.003906 21.53125 5.136719 21.675781 5.269531 C 21.816406 5.40625 21.957031 5.542969 22.089844 5.683594 C 22.222656 5.828125 22.351562 5.972656 22.472656 6.121094 C 22.597656 6.269531 22.714844 6.421875 22.824219 6.574219 C 22.9375 6.730469 23.042969 6.886719 23.144531 7.046875 C 23.242188 7.207031 23.335938 7.367188 23.425781 7.535156 C 23.511719 7.699219 23.597656 7.863281 23.671875 8.035156 C 23.746094 8.203125 23.816406 8.371094 23.882812 8.546875 C 23.945312 8.71875 24.003906 8.890625 24.054688 9.066406 C 24.105469 9.242188 24.148438 9.417969 24.1875 9.59375 C 24.226562 9.773438 24.257812 9.949219 24.28125 10.128906 C 24.308594 10.308594 24.324219 10.488281 24.335938 10.667969 C 24.347656 10.847656 24.355469 11.027344 24.351562 11.210938 C 24.351562 11.390625 24.34375 11.570312 24.328125 11.75 C 24.316406 11.929688 24.292969 12.109375 24.265625 12.289062 C 24.238281 12.464844 24.207031 12.644531 24.164062 12.820312 C 24.125 13 24.078125 13.175781 24.023438 13.347656 C 23.972656 13.523438 23.910156 13.695312 23.847656 13.867188 C 23.78125 14.039062 23.707031 14.210938 23.628906 14.378906 C 23.550781 14.546875 23.464844 14.710938 23.375 14.875 C 23.285156 15.039062 23.191406 15.199219 23.085938 15.359375 C 22.984375 15.519531 22.875 15.675781 22.761719 15.828125 C 22.648438 15.980469 22.53125 16.132812 22.40625 16.277344 C 22.28125 16.425781 22.152344 16.570312 22.015625 16.710938 C 21.882812 16.851562 21.742188 16.988281 21.597656 17.121094 C 21.449219 17.257812 21.300781 17.386719 21.144531 17.511719 C 20.992188 17.636719 20.832031 17.761719 20.667969 17.878906 C 20.503906 17.996094 20.335938 18.109375 20.164062 18.21875 C 19.992188 18.328125 19.816406 18.433594 19.636719 18.535156 C 19.457031 18.636719 19.277344 18.730469 19.089844 18.824219 C 18.902344 18.914062 18.714844 19 18.519531 19.082031 C 18.328125 19.164062 18.132812 19.238281 17.933594 19.3125 C 17.734375 19.382812 17.535156 19.449219 17.332031 19.511719 C 17.128906 19.574219 16.921875 19.628906 16.714844 19.679688 C 16.507812 19.730469 16.296875 19.777344 16.085938 19.816406 C 15.875 19.859375 15.664062 19.894531 15.449219 19.921875 C 15.238281 19.953125 15.023438 19.976562 14.808594 19.996094 C 14.59375 20.015625 14.378906 20.027344 14.160156 20.035156 C 13.945312 20.042969 13.730469 20.046875 13.511719 20.042969 C 13.296875 20.042969 13.078125 20.03125 12.863281 20.019531 C 12.648438 20.003906 12.433594 19.984375 12.21875 19.960938 C 12.003906 19.9375 11.792969 19.90625 11.578125 19.871094 C 11.367188 19.835938 11.15625 19.792969 10.949219 19.746094 C 10.738281 19.699219 10.53125 19.648438 10.328125 19.59375 C 10.121094 19.535156 9.917969 19.472656 9.71875 19.40625 C 9.515625 19.339844 9.320312 19.265625 9.125 19.1875 C 8.929688 19.113281 8.734375 19.03125 8.546875 18.941406 C 8.355469 18.855469 8.171875 18.765625 7.988281 18.667969 C 7.855469 18.597656 7.707031 18.5625 7.550781 18.5625 C 7.460938 18.5625 7.375 18.574219 7.289062 18.597656 Z M 35.753906 19.363281 C 35.753906 19.816406 35.71875 20.269531 35.644531 20.71875 C 35.574219 21.167969 35.464844 21.609375 35.320312 22.046875 C 35.175781 22.484375 35 22.914062 34.785156 23.332031 C 34.574219 23.75 34.328125 24.152344 34.054688 24.542969 L 35.710938 28.695312 C 35.722656 28.71875 35.730469 28.746094 35.738281 28.769531 C 35.742188 28.796875 35.75 28.824219 35.75 28.851562 C 35.753906 28.878906 35.753906 28.90625 35.753906 28.929688 C 35.753906 28.957031 35.75 28.984375 35.746094 29.011719 C 35.738281 29.039062 35.734375 29.066406 35.726562 29.089844 C 35.714844 29.117188 35.707031 29.140625 35.695312 29.167969 C 35.679688 29.191406 35.667969 29.214844 35.652344 29.238281 C 35.636719 29.261719 35.617188 29.285156 35.601562 29.308594 C 35.582031 29.328125 35.5625 29.351562 35.539062 29.371094 C 35.515625 29.390625 35.492188 29.410156 35.46875 29.425781 C 35.445312 29.445312 35.417969 29.460938 35.390625 29.476562 C 35.367188 29.488281 35.339844 29.503906 35.308594 29.515625 C 35.28125 29.527344 35.25 29.539062 35.222656 29.546875 C 35.191406 29.558594 35.160156 29.566406 35.128906 29.570312 C 35.097656 29.578125 35.066406 29.582031 35.03125 29.585938 C 35 29.589844 34.96875 29.589844 34.9375 29.589844 C 34.847656 29.589844 34.761719 29.578125 34.675781 29.554688 L 29.699219 28.171875 C 29.511719 28.265625 29.320312 28.351562 29.128906 28.4375 C 28.9375 28.519531 28.742188 28.597656 28.542969 28.675781 C 28.347656 28.75 28.144531 28.820312 27.945312 28.886719 C 27.742188 28.953125 27.539062 29.011719 27.332031 29.070312 C 27.125 29.128906 26.917969 29.179688 26.707031 29.226562 C 26.5 29.277344 26.289062 29.320312 26.078125 29.355469 C 25.863281 29.394531 25.652344 29.429688 25.4375 29.457031 C 25.222656 29.488281 25.007812 29.511719 24.792969 29.53125 C 24.574219 29.550781 24.359375 29.566406 24.144531 29.574219 C 23.925781 29.585938 23.707031 29.589844 23.492188 29.589844 C 23.273438 29.589844 23.058594 29.585938 22.839844 29.578125 C 22.625 29.566406 22.40625 29.554688 22.191406 29.535156 C 21.976562 29.515625 21.761719 29.492188 21.546875 29.464844 C 21.332031 29.4375 21.117188 29.402344 20.90625 29.363281 C 20.695312 29.328125 20.484375 29.285156 20.273438 29.238281 C 20.0625 29.191406 19.855469 29.136719 19.648438 29.082031 C 19.441406 29.023438 19.238281 28.964844 19.035156 28.898438 C 18.835938 28.832031 18.632812 28.761719 18.4375 28.6875 C 18.238281 28.613281 18.042969 28.535156 17.851562 28.453125 C 17.65625 28.371094 17.464844 28.28125 17.28125 28.191406 C 17.09375 28.097656 16.90625 28.003906 16.726562 27.902344 C 16.546875 27.804688 16.367188 27.699219 16.191406 27.59375 C 16.019531 27.484375 15.847656 27.375 15.679688 27.257812 C 15.511719 27.144531 15.347656 27.027344 15.1875 26.902344 C 15.027344 26.78125 14.871094 26.65625 14.722656 26.527344 C 14.570312 26.398438 14.421875 26.265625 14.277344 26.128906 C 14.132812 25.992188 13.996094 25.851562 13.859375 25.710938 C 13.726562 25.570312 13.597656 25.425781 13.472656 25.277344 C 13.347656 25.128906 13.226562 24.980469 13.109375 24.824219 C 12.992188 24.671875 12.882812 24.515625 12.777344 24.359375 C 12.671875 24.199219 12.570312 24.039062 12.476562 23.878906 C 12.378906 23.714844 12.289062 23.550781 12.203125 23.386719 C 12.6875 23.429688 13.175781 23.453125 13.664062 23.453125 C 13.796875 23.453125 13.929688 23.441406 14.0625 23.4375 C 14.144531 23.574219 14.234375 23.707031 14.324219 23.839844 C 14.417969 23.972656 14.515625 24.101562 14.613281 24.230469 C 14.714844 24.359375 14.820312 24.484375 14.925781 24.605469 C 15.035156 24.730469 15.148438 24.851562 15.261719 24.96875 C 15.378906 25.089844 15.496094 25.203125 15.621094 25.316406 C 15.742188 25.429688 15.871094 25.542969 16 25.648438 C 16.128906 25.757812 16.261719 25.863281 16.398438 25.964844 C 16.535156 26.066406 16.675781 26.167969 16.816406 26.261719 C 16.960938 26.359375 17.105469 26.453125 17.253906 26.542969 C 17.402344 26.632812 17.554688 26.71875 17.707031 26.800781 C 17.859375 26.882812 18.015625 26.964844 18.175781 27.039062 C 18.332031 27.117188 18.496094 27.191406 18.660156 27.261719 C 18.820312 27.328125 18.988281 27.394531 19.152344 27.457031 C 19.320312 27.519531 19.492188 27.578125 19.660156 27.632812 C 19.832031 27.6875 20.003906 27.742188 20.179688 27.789062 C 20.355469 27.835938 20.53125 27.878906 20.707031 27.917969 C 20.882812 27.960938 21.0625 27.996094 21.242188 28.027344 C 21.421875 28.058594 21.601562 28.089844 21.78125 28.113281 C 21.960938 28.136719 22.144531 28.160156 22.324219 28.175781 C 22.507812 28.191406 22.691406 28.203125 22.875 28.210938 C 23.058594 28.222656 23.242188 28.226562 23.421875 28.226562 C 23.605469 28.226562 23.789062 28.226562 23.972656 28.21875 C 24.15625 28.210938 24.339844 28.199219 24.523438 28.183594 C 24.703125 28.167969 24.886719 28.148438 25.066406 28.128906 C 25.25 28.105469 25.429688 28.078125 25.609375 28.046875 C 25.789062 28.015625 25.96875 27.980469 26.144531 27.941406 C 26.320312 27.90625 26.5 27.863281 26.671875 27.816406 C 26.847656 27.769531 27.019531 27.71875 27.191406 27.667969 C 27.363281 27.613281 27.535156 27.554688 27.703125 27.492188 C 27.871094 27.433594 28.035156 27.367188 28.199219 27.300781 C 28.363281 27.230469 28.527344 27.160156 28.6875 27.085938 C 28.847656 27.011719 29.003906 26.929688 29.15625 26.851562 C 29.210938 26.824219 29.261719 26.800781 29.320312 26.78125 C 29.378906 26.765625 29.4375 26.753906 29.496094 26.75 C 29.558594 26.742188 29.617188 26.742188 29.675781 26.746094 C 29.738281 26.75 29.796875 26.761719 29.855469 26.777344 L 33.644531 27.832031 L 32.378906 24.675781 C 32.359375 24.625 32.347656 24.578125 32.34375 24.527344 C 32.335938 24.476562 32.335938 24.425781 32.34375 24.375 C 32.351562 24.324219 32.363281 24.277344 32.386719 24.230469 C 32.40625 24.179688 32.433594 24.136719 32.464844 24.09375 C 32.5625 23.964844 32.65625 23.832031 32.746094 23.699219 C 32.839844 23.566406 32.925781 23.433594 33.007812 23.296875 C 33.089844 23.160156 33.164062 23.019531 33.238281 22.882812 C 33.3125 22.742188 33.378906 22.597656 33.445312 22.457031 C 33.507812 22.3125 33.570312 22.167969 33.625 22.023438 C 33.679688 21.878906 33.730469 21.730469 33.777344 21.582031 C 33.824219 21.433594 33.863281 21.285156 33.902344 21.136719 C 33.9375 20.988281 33.96875 20.835938 34 20.683594 C 34.027344 20.535156 34.046875 20.382812 34.066406 20.230469 C 34.085938 20.078125 34.097656 19.925781 34.105469 19.773438 C 34.113281 19.621094 34.117188 19.46875 34.117188 19.316406 C 34.117188 19.164062 34.113281 19.007812 34.101562 18.855469 C 34.089844 18.703125 34.074219 18.550781 34.054688 18.402344 C 34.035156 18.25 34.011719 18.097656 33.980469 17.945312 C 33.953125 17.796875 33.917969 17.644531 33.878906 17.496094 C 33.839844 17.347656 33.796875 17.199219 33.75 17.050781 C 33.699219 16.902344 33.648438 16.757812 33.589844 16.613281 C 33.535156 16.46875 33.472656 16.324219 33.40625 16.179688 C 33.339844 16.039062 33.269531 15.898438 33.195312 15.757812 C 33.121094 15.617188 33.042969 15.480469 32.957031 15.34375 C 32.875 15.207031 32.785156 15.074219 32.695312 14.941406 C 32.601562 14.808594 32.507812 14.679688 32.40625 14.550781 C 32.308594 14.421875 32.203125 14.296875 32.09375 14.171875 C 31.988281 14.050781 31.875 13.929688 31.761719 13.808594 C 31.644531 13.691406 31.527344 13.574219 31.402344 13.460938 C 31.28125 13.347656 31.15625 13.238281 31.023438 13.128906 C 30.894531 13.019531 30.761719 12.914062 30.625 12.8125 C 30.492188 12.710938 30.351562 12.609375 30.210938 12.515625 C 30.066406 12.417969 29.921875 12.324219 29.773438 12.234375 C 29.625 12.144531 29.476562 12.058594 29.320312 11.972656 C 29.167969 11.890625 29.011719 11.8125 28.851562 11.734375 C 28.695312 11.65625 28.535156 11.582031 28.371094 11.515625 C 28.375 11.402344 28.390625 11.292969 28.390625 11.183594 C 28.390625 10.773438 28.363281 10.367188 28.316406 9.96875 C 28.589844 10.066406 28.859375 10.175781 29.125 10.289062 C 29.386719 10.402344 29.644531 10.527344 29.898438 10.65625 C 30.152344 10.789062 30.398438 10.925781 30.640625 11.070312 C 30.882812 11.214844 31.117188 11.367188 31.347656 11.527344 C 31.574219 11.6875 31.792969 11.855469 32.007812 12.027344 C 32.222656 12.199219 32.429688 12.378906 32.625 12.5625 C 32.824219 12.75 33.015625 12.941406 33.195312 13.136719 C 33.378906 13.335938 33.550781 13.535156 33.714844 13.742188 C 33.878906 13.949219 34.035156 14.164062 34.179688 14.378906 C 34.324219 14.59375 34.460938 14.816406 34.585938 15.039062 C 34.714844 15.265625 34.828125 15.492188 34.9375 15.726562 C 35.042969 15.957031 35.140625 16.191406 35.226562 16.429688 C 35.3125 16.667969 35.386719 16.90625 35.453125 17.148438 C 35.519531 17.390625 35.574219 17.636719 35.617188 17.878906 C 35.660156 18.125 35.695312 18.371094 35.71875 18.621094 C 35.742188 18.867188 35.753906 19.117188 35.753906 19.363281 Z M 35.753906 19.363281 "/>
</g>
</svg>
